HIERARCHY
ROOT Hips
{
  OFFSET 0 0 0
  CHANNELS 6 Xposition Yposition Zposition Zrotation Yrotation Xrotation
  JOINT LeftThigh
  {
    OFFSET 8.409438 0 -5.917753
    CHANNELS 3 Zrotation Yrotation Xrotation
    JOINT LeftLeg
    {
      OFFSET 0 0 -42.358652
      CHANNELS 3 Zrotation Yrotation Xrotation
      JOINT LeftFoot
      {
        OFFSET 0 0 -39.357303
        CHANNELS 3 Zrotation Yrotation Xrotation
      }
    }
  }
  JOINT RightThigh
  {
    OFFSET -8.409438 0 -5.917753
    CHANNELS 3 Zrotation Yrotation Xrotation
    JOINT RightLeg
    {
      OFFSET 0 0 -42.358652
      CHANNELS 3 Zrotation Yrotation Xrotation
      JOINT RightFoot
      {
        OFFSET 0 0 -39.357303
        CHANNELS 3 Zrotation Yrotation Xrotation
      }
    }
  }
  JOINT SpineLow
  {
    OFFSET 0 0 4.719101
    CHANNELS 3 Zrotation Yrotation Xrotation
    JOINT SpineMid
    {
      OFFSET 0 0 12.899191
      CHANNELS 3 Zrotation Yrotation Xrotation
      JOINT Chest
      {
        OFFSET 0 0 12.899191
        CHANNELS 3 Zrotation Yrotation Xrotation
        JOINT LeftShoulder
        {
          OFFSET 7.550562 1.41573 9.438202
          CHANNELS 3 Zrotation Yrotation Xrotation
          JOINT LeftArm
          {
            OFFSET 9.155056 0 4.247191
            CHANNELS 3 Zrotation Yrotation Xrotation
            JOINT LeftForearm
            {
              OFFSET 0 0 25.771955
              CHANNELS 3 Zrotation Yrotation Xrotation
              JOINT LeftHand
              {
                OFFSET 0 0 25.197169
                CHANNELS 3 Zrotation Yrotation Xrotation
              }
            }
          }
        }
        JOINT RightShoulder
        {
          OFFSET -7.550562 1.41573 9.438202
          CHANNELS 3 Zrotation Yrotation Xrotation
          JOINT RightArm
          {
            OFFSET -9.155056 0 4.247191
            CHANNELS 3 Zrotation Yrotation Xrotation
            JOINT RightForearm
            {
              OFFSET 0 0 -25.771955
              CHANNELS 3 Zrotation Yrotation Xrotation
              JOINT RightHand
              {
                OFFSET 0 0 -25.197169
                CHANNELS 3 Zrotation Yrotation Xrotation
              }
            }
          }
        }
        JOINT Neck
        {
          OFFSET 0 0 15.101124
          CHANNELS 3 Zrotation Yrotation Xrotation
          JOINT Head
          {
            OFFSET 0 0 11.325843
            CHANNELS 3 Zrotation Yrotation Xrotation
            End Site
            {
              OFFSET 0 0 14.157303
            }
          }
        }
      }
    }
  }
}
MOTION
Frames: 6
Frame Time: 0.0
0.0  101.685394  0.0  -0.723021  8.410087  -100.072566  9.595247  -24.213486  5.221012  -9.978905  14.670766  20.722162  4.848934  5.171447  5.393635  -11.105924  10.661916  -0.142274  1.091806  3.882249  21.571688  0.473091  2.222418  -1.426724  0.587629  -0.1785  2.906945  1.582158  -0.557626  7.941139  1.582158  -0.557626  7.941138  2.477826  17.251691  7.654417  147.291038  16.793311  172.014559  -19.983106  20.15812  94.819274  24.343249  -34.73227  20.333485  13.144656  -8.656626  15.154765  74.029788  47.760693  37.276013  3.097904  6.945131  -22.187806  75.188973  -9.322653  16.623147  0.816908  -1.315622  -1.217758  0.610035  -0.988351  -0.911522  
0.0  101.685394  0.0  -0.704472  8.267324  -100.132708  9.77509  -24.266346  5.27428  -10.077923  14.731012  20.750017  4.867878  5.194991  5.403574  -11.125276  10.687169  -0.156563  1.197131  3.882627  21.661014  0.538213  2.233042  -1.417828  0.604531  -0.184375  2.909856  1.627554  -0.575755  7.948803  1.627554  -0.575755  7.948803  2.537101  17.217235  7.709606  147.294981  16.759232  172.026388  -19.95782  20.102301  94.832357  24.464883  -34.764173  20.083962  13.020342  -8.633295  15.236577  74.141864  47.611806  37.341831  2.680502  7.420929  -22.926995  75.472051  -9.292097  16.171266  1.055753  -1.314189  -1.199783  0.789203  -0.987723  -0.89753  
0.0  101.685394  0.0  -0.709656  8.169333  -100.179897  10.029311  -24.377899  5.349818  -10.16822  14.801701  20.804986  4.741377  5.18404  5.311156  -11.102093  10.692387  -0.147174  1.256045  3.881456  21.745344  0.546147  2.22946  -1.417817  0.621958  -0.181345  2.912688  1.675447  -0.56965  7.956449  1.675447  -0.56965  7.956449  2.450508  17.067036  7.721139  147.103255  16.766769  172.045935  -20.037914  20.209125  94.852675  24.632292  -34.874754  19.825677  12.938968  -8.673463  15.306196  74.237015  47.371255  37.350583  1.970441  7.952392  -23.780681  75.833116  -9.239419  15.620289  1.220421  -1.340091  -1.189801  0.912669  -1.007454  -0.889638  
0.0  101.685394  0.0  -0.69224  8.068634  -100.251887  10.155191  -24.417729  5.401124  -10.24263  14.865609  20.854447  4.755298  5.200381  5.308078  -11.199275  10.732038  -0.144597  1.384598  3.887347  21.821654  0.631812  2.233617  -1.412206  0.616846  -0.190144  2.914655  1.66042  -0.593096  7.961666  1.66042  -0.593096  7.961666  2.570994  17.062911  7.847811  147.113701  16.711228  172.117896  -20.053773  20.296827  94.87309  24.728405  -34.898633  19.640018  12.846984  -8.580986  15.385246  73.999311  47.150692  37.138253  1.386568  8.640196  -24.926543  76.272583  -9.145032  14.989901  1.474357  -1.307498  -1.153452  1.103256  -0.983417  -0.861903  
0.0  101.685394  0.0  -0.674889  8.099298  -100.259427  10.185499  -24.451693  5.41565  -10.188417  14.943804  20.977999  4.628723  5.175344  5.222548  -11.505533  10.788262  -0.250849  1.547466  3.853952  21.911636  0.74922  2.276908  -1.398642  0.600674  -0.186221  2.907372  1.616829  -0.580268  7.942007  1.616829  -0.580268  7.942008  2.505986  16.932955  7.911279  147.065257  16.669341  172.186676  -20.140453  20.420326  94.89599  24.81958  -34.926079  19.435147  12.76783  -8.561339  15.461576  73.706675  46.879796  36.861906  0.592755  9.416732  -26.241001  76.764182  -9.000076  14.317552  1.678358  -1.309991  -1.112903  1.256333  -0.985562  -0.83105  
0.0  101.685394  0.0  -0.660052  8.021968  -100.310648  10.2412  -24.511645  5.445517  -10.172808  15.033805  21.053192  4.606865  5.189712  5.210158  -11.647297  10.798794  -0.259929  1.752898  3.862623  21.98066  0.778812  2.289238  -1.393576  0.585856  -0.196119  2.906824  1.575213  -0.605488  7.940427  1.575213  -0.605488  7.940427  2.59532  16.93248  8.048215  147.147924  16.620239  172.293856  -20.114358  20.488076  94.905406  24.912832  -34.911302  19.23951  12.639519  -8.430237  15.502733  73.242198  46.61912  36.473004  -0.11059  10.311905  -27.85327  77.324312  -8.816056  13.651053  1.932167  -1.253788  -1.080391  1.446856  -0.943771  -0.806306  
